<mxfile host="app.diagrams.net" modified="2024-06-16T15:34:23.638Z" agent="Mozilla/5.0 (Windows NT 10.0; Win64; x64) AppleWebKit/537.36 (KHTML, like Gecko) Chrome/125.0.0.0 Safari/537.36" version="24.2.5" etag="ozc38kPg_Ab6WwsybyUl" type="github">
  <diagram name="PÃ¡gina-1" id="nMKooNfA9ZpDlacTlkCV">
    <mxGraphModel>
      <root>
        <mxCell id="0" />
        <mxCell id="1" parent="0" />
      </root>
    </mxGraphModel>
  </diagram>
</mxfile>
